HIERARCHY
ROOT Hips
{
	OFFSET 0.000000 88.474243 0.000000
	CHANNELS 6 Xposition Yposition Zposition Zrotation Yrotation Xrotation 
	JOINT Hips_Spine
	{
		OFFSET 0.000000 0.000000 0.000000
		CHANNELS 3 Zrotation Yrotation Xrotation
		JOINT Spine
		{
			OFFSET 0.005100 8.711998 -0.691000
			CHANNELS 3 Zrotation Yrotation Xrotation
			JOINT Spine1
			{
				OFFSET -0.009200 8.660301 -1.275000
				CHANNELS 3 Zrotation Yrotation Xrotation
				JOINT Spine2
				{
					OFFSET 0.006300 9.852501 -1.857000
					CHANNELS 3 Zrotation Yrotation Xrotation
					JOINT Spine2_Neck
					{
						OFFSET 0.000000 0.000000 0.000000
						CHANNELS 3 Zrotation Yrotation Xrotation
						JOINT Neck
						{
							OFFSET 0.016300 11.420799 -0.263300
							CHANNELS 3 Zrotation Yrotation Xrotation
							End Site #name: Head
							{
								OFFSET -0.019200 9.262405 2.362500
							}
						}
					}
					JOINT Spine2_LeftShoulder
					{
						OFFSET 0.000000 0.000000 0.000000
						CHANNELS 3 Zrotation Yrotation Xrotation
						JOINT LeftShoulder
						{
							OFFSET 5.616900 6.732201 -0.345700
							CHANNELS 3 Zrotation Yrotation Xrotation
							JOINT LeftArm
							{
								OFFSET 10.664888 -0.183372 -2.440700
								CHANNELS 3 Zrotation Yrotation Xrotation
								JOINT LeftForeArm
								{
									OFFSET 27.459126 0.000000 0.000000
									CHANNELS 3 Zrotation Yrotation Xrotation
									End Site #name: LeftHand
									{
										OFFSET 21.306858 0.000000 0.000000
									}
								}
							}
						}
					}
					JOINT Spine2_RightShoulder
					{
						OFFSET 0.000000 0.000000 0.000000
						CHANNELS 3 Zrotation Yrotation Xrotation
						JOINT RightShoulder
						{
							OFFSET -5.580300 6.737503 -0.344400
							CHANNELS 3 Zrotation Yrotation Xrotation
							JOINT RightArm
							{
								OFFSET -10.679335 -0.188484 -2.383900
								CHANNELS 3 Zrotation Yrotation Xrotation
								JOINT RightForeArm
								{
									OFFSET -27.503529 0.000000 0.000000
									CHANNELS 3 Zrotation Yrotation Xrotation
									End Site #name: RightHand
									{
										OFFSET -21.306808 0.000000 0.000000
									}
								}
							}
						}
					}
				}
			}
		}
	}
	JOINT Hips_LeftUpLeg
	{
		OFFSET 0.000000 0.000000 0.000000
		CHANNELS 3 Zrotation Yrotation Xrotation
		JOINT LeftUpLeg
		{
			OFFSET 6.857700 -6.739601 0.312100
			CHANNELS 3 Zrotation Yrotation Xrotation
			JOINT LeftLeg
			{
				OFFSET -0.367590 -34.731552 -4.572400
				CHANNELS 3 Zrotation Yrotation Xrotation
				End Site #name: LeftFoot
				{
					OFFSET 0.367590 -34.656704 -6.067400
				}
			}
		}
	}
	JOINT Hips_RightUpLeg
	{
		OFFSET 0.000000 0.000000 0.000000
		CHANNELS 3 Zrotation Yrotation Xrotation
		JOINT RightUpLeg
		{
			OFFSET -6.876100 -6.733299 0.301000
			CHANNELS 3 Zrotation Yrotation Xrotation
			JOINT RightLeg
			{
				OFFSET 0.347353 -34.795158 -4.515900
				CHANNELS 3 Zrotation Yrotation Xrotation
				End Site #name: RightFoot
				{
					OFFSET -0.347353 -34.589367 -6.070300
				}
			}
		}
	}
}
MOTION
Frames: 16
Frame Time: 0.041667
0.020295 -0.032060 -0.073533 -177.549103 73.613240 -174.294040 -0.000000 -0.000000 0.000000 -3.559793 0.961327 -0.008935 1.743992 -0.421437 2.967875 0.000000 0.000000 0.000000 1.502156 -1.114464 -0.145498 -2.038693 -5.048119 -2.472684 1.024688 -0.180105 1.002015 -5.519758 -6.530255 1.513010 -76.046201 -7.696116 6.957127 1.566756 -23.718183 4.138104 0.962800 -1.044629 2.607211 18.187846 13.544116 3.646120 50.499718 11.964122 -11.290181 -5.680173 61.510237 0.120021 -0.000000 -0.000000 0.000000 -5.981890 15.846107 -17.531611 -6.637558 -27.752768 1.589909 -0.000000 -0.000000 -0.000000 -6.315096 -25.213789 -9.713005 -11.136904 -8.279734 16.537511 
-0.101826 -0.183532 -0.075996 177.940060 79.758776 -177.184026 -0.000000 -0.000000 0.000000 -5.192383 -0.091304 3.088027 2.314607 -0.604997 2.081500 0.000000 0.000000 0.000000 2.065444 -1.006278 0.888682 -1.256705 -9.349455 -1.153379 1.482995 -0.289260 0.594064 -3.916368 -7.757744 1.562437 -80.211320 -16.032795 3.987073 -0.593316 -20.792716 2.757965 2.513091 -1.169934 2.313419 22.982126 15.383973 4.190250 51.232403 11.356204 -11.245152 -3.415353 47.305814 1.599475 -0.000000 -0.000000 -0.000000 -4.951822 16.453182 -17.200952 -5.218439 -25.920404 -1.353595 -0.000000 -0.000000 -0.000000 -7.153866 -26.620117 -9.283103 -7.453584 -4.587960 16.245080 
-0.102666 -0.262904 -0.078790 176.740841 73.247755 -178.248107 -0.000000 -0.000000 0.000000 -5.837542 -2.548124 3.249031 2.690237 -0.890195 2.064383 0.000000 0.000000 0.000000 2.707227 -1.302680 1.381434 -1.529830 -15.224398 -0.670227 1.629887 -0.343205 0.330942 -2.877197 -7.383720 0.948279 -80.971625 -17.235658 0.139910 0.482863 -13.387989 3.958500 2.975740 -1.381824 2.075085 24.327109 17.598157 4.989218 51.168813 13.696929 -7.013514 -3.822479 45.454788 2.186872 -0.000000 -0.000000 -0.000000 -3.752064 17.164290 -15.836713 -4.758974 -25.975659 -1.847227 -0.000000 -0.000000 -0.000000 -7.601442 -30.077931 -7.569894 -6.471864 -4.150551 16.630503 
0.014886 -0.328493 -0.076754 179.099948 66.144521 -176.834632 -0.000000 -0.000000 0.000000 -5.513568 -3.965165 3.620721 2.517661 -1.224924 2.098793 0.000000 0.000000 0.000000 2.695541 -1.584390 1.887600 -2.357780 -19.093531 -0.501814 1.544552 -0.545353 0.194399 -2.405874 -7.220601 0.564499 -81.931558 -19.251832 -0.440374 1.934694 -9.366971 5.689920 2.879283 -1.891501 2.013191 23.432452 17.658388 5.046417 51.102724 15.810455 -5.539514 -3.558184 46.151190 2.305646 -0.000000 -0.000000 -0.000000 -2.993395 17.678930 -14.046365 -4.311805 -27.145275 -2.639637 -0.000000 -0.000000 -0.000000 -8.165243 -35.688220 -6.247540 -6.615989 -3.664182 16.861538 
0.139975 -0.376987 -0.115541 179.405896 61.039047 -176.852830 -0.000000 -0.000000 0.000000 -4.008933 -4.646148 3.532262 2.245950 -1.465192 2.200735 0.000000 0.000000 0.000000 2.515610 -1.748075 2.616097 -2.561458 -21.292232 0.254510 1.319317 -0.781861 0.308521 -2.197481 -7.185468 0.312020 -82.369407 -20.543090 0.583155 3.709873 -7.225804 7.819921 2.505278 -2.331131 2.043380 22.094426 16.880011 4.800248 51.095965 17.607816 -5.040311 -3.411859 45.401592 2.130419 -0.000000 0.000000 -0.000000 -2.629098 17.902943 -13.130742 -4.083058 -28.390999 -3.101629 -0.000000 -0.000000 -0.000000 -8.617445 -40.505184 -5.363955 -7.083012 -3.253097 17.002106 
0.276945 -0.406708 -0.175238 178.771015 58.298487 -177.145783 -0.000000 -0.000000 0.000000 -1.993800 -4.983405 3.731144 1.896923 -1.665411 2.609376 0.000000 0.000000 0.000000 2.225358 -1.870967 3.360905 -2.021969 -22.078188 0.286672 1.067003 -1.018786 0.640632 -2.066633 -6.570698 -0.142849 -82.887416 -20.837299 1.995617 5.484687 -6.949074 9.759807 2.047164 -2.593758 2.221944 21.034221 15.779740 4.510023 51.642881 18.325590 -3.482728 -3.647273 46.102080 1.760292 -0.000000 0.000000 -0.000000 -2.611493 17.760386 -13.326665 -4.126999 -29.072771 -3.040490 -0.000000 -0.000000 -0.000000 -8.718262 -43.948611 -5.259670 -7.868053 -3.416376 17.055070 
0.420012 -0.419751 -0.245360 177.567476 57.208974 -177.565648 -0.000000 -0.000000 0.000000 -0.279992 -4.662715 3.931746 1.590561 -1.731706 3.147104 0.000000 0.000000 0.000000 1.920270 -1.915144 4.133806 -1.492775 -21.807332 0.281847 0.855014 -1.143587 0.997664 -2.205127 -5.905756 -0.443033 -83.033845 -20.925261 3.370997 6.874389 -7.827892 11.276213 1.654406 -2.731034 2.473418 20.138095 14.855577 4.278746 52.409518 17.510001 -1.517106 -3.777896 46.203032 1.576173 -0.000000 0.000000 -0.000000 -2.766451 17.333079 -13.933060 -4.122470 -29.286642 -3.096907 -0.000000 -0.000000 -0.000000 -8.674716 -46.300320 -5.557970 -8.767302 -4.276851 16.949949 
0.563476 -0.427075 -0.316128 176.431880 56.881854 -177.908340 -0.000000 -0.000000 0.000000 0.983190 -3.908335 3.910195 1.287376 -1.706325 3.639650 0.000000 0.000000 0.000000 1.726480 -1.898702 4.509864 -0.885503 -21.539370 0.272028 0.660137 -1.226289 1.335180 -2.287595 -5.450533 -0.632132 -82.789706 -21.039935 4.415978 7.657826 -9.126142 11.967481 1.281372 -2.819538 2.776274 19.248139 14.181806 4.125228 53.082891 15.903478 0.943442 -3.895018 45.944818 1.528806 -0.000000 0.000000 -0.000000 -2.867616 16.854580 -14.454054 -4.077075 -29.354805 -3.275423 -0.000000 -0.000000 -0.000000 -8.466968 -47.494332 -6.160598 -9.528547 -5.312150 16.874567 
0.706957 -0.432739 -0.379471 175.555685 56.297989 -178.197291 -0.000000 -0.000000 0.000000 1.709118 -3.067744 3.899935 1.128962 -1.658697 3.993569 0.000000 0.000000 0.000000 1.520504 -1.844196 4.701697 -0.481963 -21.588088 0.272315 0.527391 -1.260143 1.603892 -2.181346 -5.171960 -0.771669 -82.455022 -21.273569 4.832628 7.968557 -10.282295 11.953455 0.991978 -2.856382 2.995892 18.425726 13.682493 4.038303 53.509747 14.250698 2.946745 -4.053647 44.900302 1.498248 -0.000000 0.000000 -0.000000 -2.884391 16.474542 -14.680520 -4.015299 -29.406646 -3.445230 -0.000000 -0.000000 -0.000000 -8.102897 -47.557481 -6.846344 -10.204155 -6.369284 16.827704 
0.848986 -0.436635 -0.437955 175.080531 55.185884 -178.384494 -0.000000 -0.000000 0.000000 1.956313 -2.462729 3.857102 1.048057 -1.614142 4.235348 0.000000 0.000000 0.000000 1.428574 -1.809573 4.817222 -0.134759 -21.890310 0.169142 0.446139 -1.265787 1.806445 -1.914649 -5.263021 -0.779289 -82.349341 -21.590103 4.860843 8.064787 -11.084963 11.596618 0.800835 -2.863601 3.130104 17.805953 13.344312 3.961850 53.822243 12.861419 4.192136 -4.110708 43.857492 1.507999 0.000000 0.000000 -0.000000 -2.835484 16.250902 -14.629758 -3.998660 -29.420967 -3.544642 -0.000000 -0.000000 -0.000000 -7.811590 -46.800235 -7.361641 -10.517011 -7.169784 16.849363 
0.989092 -0.440060 -0.494770 174.964875 53.710935 -178.448901 -0.000000 -0.000000 0.000000 1.941450 -2.120126 3.944431 1.004363 -1.613853 4.394418 0.000000 0.000000 0.000000 1.372839 -1.793164 4.882878 0.176473 -22.157159 0.059299 0.405511 -1.266993 1.956402 -1.532787 -5.456417 -0.770002 -82.462169 -21.862336 4.753579 8.062246 -11.646264 11.116189 0.690349 -2.880791 3.238446 17.426505 13.078669 4.086264 54.003906 11.964979 4.572032 -4.145744 43.538189 1.484172 0.000000 0.000000 -0.000000 -2.754835 16.177275 -14.347416 -3.976541 -29.483274 -3.649712 -0.000000 -0.000000 -0.000000 -7.640503 -45.564901 -7.660237 -10.678754 -7.886493 16.908120 
1.127128 -0.444332 -0.553554 175.063404 52.146022 -178.429820 -0.000000 -0.000000 0.000000 1.819149 -2.022895 4.064272 0.968760 -1.647623 4.509376 0.000000 0.000000 0.000000 1.347463 -1.794110 4.931339 0.402051 -22.328481 -0.004187 0.381911 -1.277349 2.074329 -1.157290 -5.593151 -0.774830 -82.686343 -22.125890 4.910864 7.955877 -12.095166 10.605585 0.627845 -2.903512 3.353707 17.247570 12.931284 4.237092 54.127898 11.470623 4.117103 -4.151084 43.886767 1.450738 0.000000 0.000000 -0.000000 -2.662879 16.199820 -13.934748 -3.947106 -29.650525 -3.811286 -0.000000 -0.000000 -0.000000 -7.551964 -44.202655 -7.799878 -10.697436 -8.480357 16.927553 
1.262221 -0.450323 -0.617149 175.260577 50.888464 -178.352405 -0.000000 -0.000000 0.000000 1.699217 -2.095564 4.187550 0.940394 -1.696966 4.602149 0.000000 0.000000 0.000000 1.334554 -1.813868 4.974699 0.586271 -22.474397 -0.066175 0.369962 -1.300726 2.163768 -0.850102 -5.598901 -0.802149 -82.919368 -22.415452 5.238722 7.926353 -12.521501 10.137142 0.589554 -2.931874 3.457682 17.208575 12.834614 4.415423 54.246924 11.170217 3.570080 -4.139763 44.884880 1.416269 0.000000 0.000000 -0.000000 -2.562149 16.255280 -13.472390 -3.917177 -29.945500 -4.034423 -0.000000 0.000000 -0.000000 -7.476999 -42.959502 -7.853778 -10.631535 -8.902434 16.899584 
1.393475 -0.458733 -0.685747 175.465134 50.130390 -178.259823 -0.000000 -0.000000 0.000000 1.635395 -2.229408 4.237514 0.920673 -1.755894 4.688557 0.000000 0.000000 0.000000 1.330443 -1.841947 5.020885 0.747750 -22.550836 -0.118073 0.368462 -1.334182 2.242418 -0.616146 -5.543270 -0.831236 -83.059368 -22.621262 5.672179 7.919390 -12.948662 9.685057 0.569843 -2.970648 3.559441 17.169959 12.747695 4.592368 54.340863 11.065467 2.995657 -4.125516 46.070840 1.399579 0.000000 0.000000 -0.000000 -2.447605 16.291959 -12.968412 -3.873535 -30.362717 -4.374588 -0.000000 0.000000 -0.000000 -7.355713 -41.951379 -7.898446 -10.587990 -9.148639 16.858027 
1.519528 -0.470034 -0.758958 175.660583 49.715231 -178.150136 -0.000000 -0.000000 0.000000 1.646127 -2.403466 4.248336 0.918470 -1.816983 4.773203 0.000000 0.000000 0.000000 1.342046 -1.876256 5.075580 0.886569 -22.622273 -0.149164 0.375089 -1.370839 2.312700 -0.441868 -5.424895 -0.874955 -83.156961 -22.771391 6.051039 7.926771 -13.289994 9.260732 0.573133 -3.012323 3.660765 17.068105 12.666333 4.721956 54.417020 11.059574 2.427179 -4.104167 47.380041 1.404716 0.000000 0.000000 -0.000000 -2.327437 16.306890 -12.443584 -3.815363 -30.893513 -4.823711 -0.000000 0.000000 -0.000000 -7.217238 -41.396651 -7.899126 -10.607484 -9.256533 16.783935 
1.638525 -0.485205 -0.837612 175.836048 49.445053 -178.035245 0.000000 -0.000000 0.000000 1.736803 -2.586794 4.231780 0.933454 -1.880442 4.864219 0.000000 0.000000 0.000000 1.369717 -1.916052 5.139962 1.012366 -22.725031 -0.162513 0.392665 -1.410035 2.385242 -0.296092 -5.275713 -0.935573 -83.255309 -22.936054 6.381572 7.963615 -13.524890 8.955464 0.601029 -3.061562 3.771811 16.945813 12.591627 4.764012 54.532418 11.017848 1.913937 -4.076456 48.611259 1.408561 0.000000 0.000000 -0.000000 -2.219006 16.309921 -11.894107 -3.733305 -31.581533 -5.414865 -0.000000 0.000000 -0.000000 -7.092756 -41.217628 -7.863382 -10.607637 -9.188631 16.671525 
